<mxfile host="app.diagrams.net" agent="Mozilla/5.0 (Windows NT 10.0; Win64; x64) AppleWebKit/537.36 (KHTML, like Gecko) Chrome/131.0.0.0 Safari/537.36" version="26.0.6">
  <diagram name="Page-1" id="bkhj7TyTQltoUjwlAiIB">
    <mxGraphModel dx="658" dy="426" grid="1" gridSize="10" guides="1" tooltips="1" connect="1" arrows="1" fold="1" page="1" pageScale="1" pageWidth="827" pageHeight="1169" math="0" shadow="0">
      <root>
        <mxCell id="0" />
        <mxCell id="1" parent="0" />
        <mxCell id="wifZ-9k00RwjJwxD-yln-15" style="edgeStyle=orthogonalEdgeStyle;rounded=0;orthogonalLoop=1;jettySize=auto;html=1;" parent="1" source="wifZ-9k00RwjJwxD-yln-1" edge="1">
          <mxGeometry relative="1" as="geometry">
            <mxPoint x="200" y="110" as="targetPoint" />
          </mxGeometry>
        </mxCell>
        <mxCell id="wifZ-9k00RwjJwxD-yln-1" value="Visiteur" style="shape=umlActor;verticalLabelPosition=bottom;verticalAlign=top;html=1;outlineConnect=0;" parent="1" vertex="1">
          <mxGeometry x="20" y="80" width="30" height="60" as="geometry" />
        </mxCell>
        <mxCell id="wifZ-9k00RwjJwxD-yln-2" value="Application web" style="text;html=1;align=center;verticalAlign=middle;whiteSpace=wrap;rounded=0;glass=0;shadow=0;fillColor=#fff2cc;strokeColor=#d6b656;" parent="1" vertex="1">
          <mxGeometry width="90" height="30" as="geometry" />
        </mxCell>
        <mxCell id="wifZ-9k00RwjJwxD-yln-5" value="Créer un compte" style="text;html=1;align=center;verticalAlign=middle;whiteSpace=wrap;rounded=0;fontStyle=4" parent="1" vertex="1">
          <mxGeometry y="30" width="110" height="30" as="geometry" />
        </mxCell>
        <mxCell id="wifZ-9k00RwjJwxD-yln-8" value="" style="endArrow=none;html=1;rounded=0;" parent="1" edge="1">
          <mxGeometry width="50" height="50" relative="1" as="geometry">
            <mxPoint x="200" y="220" as="sourcePoint" />
            <mxPoint x="200" y="80" as="targetPoint" />
          </mxGeometry>
        </mxCell>
        <mxCell id="wifZ-9k00RwjJwxD-yln-9" value="" style="endArrow=none;html=1;rounded=0;" parent="1" edge="1">
          <mxGeometry width="50" height="50" relative="1" as="geometry">
            <mxPoint x="400" y="220" as="sourcePoint" />
            <mxPoint x="400" y="80" as="targetPoint" />
          </mxGeometry>
        </mxCell>
        <mxCell id="wifZ-9k00RwjJwxD-yln-10" value="" style="endArrow=none;html=1;rounded=0;" parent="1" edge="1">
          <mxGeometry width="50" height="50" relative="1" as="geometry">
            <mxPoint x="600" y="220" as="sourcePoint" />
            <mxPoint x="600" y="80" as="targetPoint" />
          </mxGeometry>
        </mxCell>
        <mxCell id="wifZ-9k00RwjJwxD-yln-11" value="Front-end" style="text;html=1;align=center;verticalAlign=middle;whiteSpace=wrap;rounded=0;" parent="1" vertex="1">
          <mxGeometry x="170" y="40" width="60" height="30" as="geometry" />
        </mxCell>
        <mxCell id="wifZ-9k00RwjJwxD-yln-12" value="Back-end" style="text;html=1;align=center;verticalAlign=middle;whiteSpace=wrap;rounded=0;" parent="1" vertex="1">
          <mxGeometry x="370" y="40" width="60" height="30" as="geometry" />
        </mxCell>
        <mxCell id="wifZ-9k00RwjJwxD-yln-13" value="BDD" style="text;html=1;align=center;verticalAlign=middle;whiteSpace=wrap;rounded=0;" parent="1" vertex="1">
          <mxGeometry x="570" y="40" width="60" height="30" as="geometry" />
        </mxCell>
        <mxCell id="wifZ-9k00RwjJwxD-yln-16" value="crée un compte" style="text;html=1;align=center;verticalAlign=middle;whiteSpace=wrap;rounded=0;fontSize=10;" parent="1" vertex="1">
          <mxGeometry x="70" y="92.5" width="100" height="10" as="geometry" />
        </mxCell>
        <mxCell id="wifZ-9k00RwjJwxD-yln-17" value="" style="endArrow=classic;html=1;rounded=0;" parent="1" edge="1">
          <mxGeometry width="50" height="50" relative="1" as="geometry">
            <mxPoint x="200" y="120" as="sourcePoint" />
            <mxPoint x="400" y="120" as="targetPoint" />
          </mxGeometry>
        </mxCell>
        <mxCell id="wifZ-9k00RwjJwxD-yln-18" value="envoi des informations personnelles" style="text;html=1;align=center;verticalAlign=middle;whiteSpace=wrap;rounded=0;fontSize=10;" parent="1" vertex="1">
          <mxGeometry x="220" y="102.5" width="170" height="15" as="geometry" />
        </mxCell>
        <mxCell id="wifZ-9k00RwjJwxD-yln-20" value="" style="endArrow=classic;html=1;rounded=0;" parent="1" edge="1">
          <mxGeometry width="50" height="50" relative="1" as="geometry">
            <mxPoint x="400" y="130" as="sourcePoint" />
            <mxPoint x="600" y="130" as="targetPoint" />
          </mxGeometry>
        </mxCell>
        <mxCell id="wifZ-9k00RwjJwxD-yln-21" value="enregistrement des données" style="text;html=1;align=center;verticalAlign=middle;whiteSpace=wrap;rounded=0;fontSize=10;" parent="1" vertex="1">
          <mxGeometry x="414" y="110" width="170" height="15" as="geometry" />
        </mxCell>
        <mxCell id="wifZ-9k00RwjJwxD-yln-22" value="création du compte si validée" style="text;html=1;align=center;verticalAlign=middle;whiteSpace=wrap;rounded=0;fontSize=10;fillColor=#d5e8d4;strokeColor=#82b366;" parent="1" vertex="1">
          <mxGeometry x="420" y="140" width="170" height="15" as="geometry" />
        </mxCell>
        <mxCell id="wifZ-9k00RwjJwxD-yln-23" value="" style="endArrow=classic;html=1;rounded=0;" parent="1" edge="1">
          <mxGeometry width="50" height="50" relative="1" as="geometry">
            <mxPoint x="599" y="160" as="sourcePoint" />
            <mxPoint x="399" y="160" as="targetPoint" />
          </mxGeometry>
        </mxCell>
        <mxCell id="wifZ-9k00RwjJwxD-yln-25" value="confirmation de la création du compte" style="text;html=1;align=center;verticalAlign=middle;whiteSpace=wrap;rounded=0;fontSize=10;fillColor=#d5e8d4;strokeColor=#82b366;" parent="1" vertex="1">
          <mxGeometry x="221" y="150" width="170" height="15" as="geometry" />
        </mxCell>
        <mxCell id="wifZ-9k00RwjJwxD-yln-26" value="" style="endArrow=classic;html=1;rounded=0;" parent="1" edge="1">
          <mxGeometry width="50" height="50" relative="1" as="geometry">
            <mxPoint x="400" y="170" as="sourcePoint" />
            <mxPoint x="200" y="170" as="targetPoint" />
          </mxGeometry>
        </mxCell>
        <mxCell id="wifZ-9k00RwjJwxD-yln-27" value="message d&#39;erreur si compte existant" style="text;html=1;align=center;verticalAlign=middle;whiteSpace=wrap;rounded=0;fontSize=10;fillColor=#f8cecc;strokeColor=#b85450;" parent="1" vertex="1">
          <mxGeometry x="221" y="180" width="170" height="15" as="geometry" />
        </mxCell>
        <mxCell id="wifZ-9k00RwjJwxD-yln-28" value="" style="endArrow=classic;html=1;rounded=0;" parent="1" edge="1">
          <mxGeometry width="50" height="50" relative="1" as="geometry">
            <mxPoint x="400" y="200" as="sourcePoint" />
            <mxPoint x="200" y="200" as="targetPoint" />
          </mxGeometry>
        </mxCell>
        <mxCell id="wifZ-9k00RwjJwxD-yln-29" value="Se connecter" style="text;html=1;align=center;verticalAlign=middle;whiteSpace=wrap;rounded=0;fontStyle=4" parent="1" vertex="1">
          <mxGeometry y="220" width="90" height="30" as="geometry" />
        </mxCell>
        <mxCell id="wifZ-9k00RwjJwxD-yln-30" style="edgeStyle=orthogonalEdgeStyle;rounded=0;orthogonalLoop=1;jettySize=auto;html=1;" parent="1" source="wifZ-9k00RwjJwxD-yln-31" edge="1">
          <mxGeometry relative="1" as="geometry">
            <mxPoint x="200" y="310" as="targetPoint" />
          </mxGeometry>
        </mxCell>
        <mxCell id="wifZ-9k00RwjJwxD-yln-31" value="Visiteur" style="shape=umlActor;verticalLabelPosition=bottom;verticalAlign=top;html=1;outlineConnect=0;" parent="1" vertex="1">
          <mxGeometry x="20" y="280" width="30" height="60" as="geometry" />
        </mxCell>
        <mxCell id="wifZ-9k00RwjJwxD-yln-32" value="" style="endArrow=none;html=1;rounded=0;" parent="1" edge="1">
          <mxGeometry width="50" height="50" relative="1" as="geometry">
            <mxPoint x="200" y="420" as="sourcePoint" />
            <mxPoint x="200" y="280" as="targetPoint" />
          </mxGeometry>
        </mxCell>
        <mxCell id="wifZ-9k00RwjJwxD-yln-33" value="" style="endArrow=none;html=1;rounded=0;" parent="1" edge="1">
          <mxGeometry width="50" height="50" relative="1" as="geometry">
            <mxPoint x="400" y="420" as="sourcePoint" />
            <mxPoint x="400" y="280" as="targetPoint" />
          </mxGeometry>
        </mxCell>
        <mxCell id="wifZ-9k00RwjJwxD-yln-34" value="" style="endArrow=none;html=1;rounded=0;" parent="1" edge="1">
          <mxGeometry width="50" height="50" relative="1" as="geometry">
            <mxPoint x="600" y="420" as="sourcePoint" />
            <mxPoint x="600" y="280" as="targetPoint" />
          </mxGeometry>
        </mxCell>
        <mxCell id="wifZ-9k00RwjJwxD-yln-35" value="Front-end" style="text;html=1;align=center;verticalAlign=middle;whiteSpace=wrap;rounded=0;" parent="1" vertex="1">
          <mxGeometry x="170" y="240" width="60" height="30" as="geometry" />
        </mxCell>
        <mxCell id="wifZ-9k00RwjJwxD-yln-36" value="Back-end" style="text;html=1;align=center;verticalAlign=middle;whiteSpace=wrap;rounded=0;" parent="1" vertex="1">
          <mxGeometry x="370" y="240" width="60" height="30" as="geometry" />
        </mxCell>
        <mxCell id="wifZ-9k00RwjJwxD-yln-37" value="BDD" style="text;html=1;align=center;verticalAlign=middle;whiteSpace=wrap;rounded=0;" parent="1" vertex="1">
          <mxGeometry x="570" y="240" width="60" height="30" as="geometry" />
        </mxCell>
        <mxCell id="wifZ-9k00RwjJwxD-yln-38" value="se connecte" style="text;html=1;align=center;verticalAlign=middle;whiteSpace=wrap;rounded=0;fontSize=10;" parent="1" vertex="1">
          <mxGeometry x="70" y="292.5" width="100" height="10" as="geometry" />
        </mxCell>
        <mxCell id="wifZ-9k00RwjJwxD-yln-39" value="" style="endArrow=classic;html=1;rounded=0;" parent="1" edge="1">
          <mxGeometry width="50" height="50" relative="1" as="geometry">
            <mxPoint x="200" y="320" as="sourcePoint" />
            <mxPoint x="400" y="320" as="targetPoint" />
          </mxGeometry>
        </mxCell>
        <mxCell id="wifZ-9k00RwjJwxD-yln-40" value="envoi des informations de connexion" style="text;html=1;align=center;verticalAlign=middle;whiteSpace=wrap;rounded=0;fontSize=10;" parent="1" vertex="1">
          <mxGeometry x="220" y="302.5" width="170" height="15" as="geometry" />
        </mxCell>
        <mxCell id="wifZ-9k00RwjJwxD-yln-41" value="" style="endArrow=classic;html=1;rounded=0;" parent="1" edge="1">
          <mxGeometry width="50" height="50" relative="1" as="geometry">
            <mxPoint x="400" y="330" as="sourcePoint" />
            <mxPoint x="600" y="330" as="targetPoint" />
          </mxGeometry>
        </mxCell>
        <mxCell id="wifZ-9k00RwjJwxD-yln-42" value="vérification des données" style="text;html=1;align=center;verticalAlign=middle;whiteSpace=wrap;rounded=0;fontSize=10;" parent="1" vertex="1">
          <mxGeometry x="414" y="310" width="170" height="15" as="geometry" />
        </mxCell>
        <mxCell id="wifZ-9k00RwjJwxD-yln-43" value="connexion au compte si validée" style="text;html=1;align=center;verticalAlign=middle;whiteSpace=wrap;rounded=0;fontSize=10;fillColor=#d5e8d4;strokeColor=#82b366;" parent="1" vertex="1">
          <mxGeometry x="420" y="340" width="170" height="15" as="geometry" />
        </mxCell>
        <mxCell id="wifZ-9k00RwjJwxD-yln-44" value="" style="endArrow=classic;html=1;rounded=0;" parent="1" edge="1">
          <mxGeometry width="50" height="50" relative="1" as="geometry">
            <mxPoint x="599" y="360" as="sourcePoint" />
            <mxPoint x="399" y="360" as="targetPoint" />
          </mxGeometry>
        </mxCell>
        <mxCell id="wifZ-9k00RwjJwxD-yln-45" value="redirection vers la page demandée" style="text;html=1;align=center;verticalAlign=middle;whiteSpace=wrap;rounded=0;fontSize=10;fillColor=#d5e8d4;strokeColor=#82b366;" parent="1" vertex="1">
          <mxGeometry x="221" y="350" width="170" height="15" as="geometry" />
        </mxCell>
        <mxCell id="wifZ-9k00RwjJwxD-yln-46" value="" style="endArrow=classic;html=1;rounded=0;" parent="1" edge="1">
          <mxGeometry width="50" height="50" relative="1" as="geometry">
            <mxPoint x="400" y="370" as="sourcePoint" />
            <mxPoint x="200" y="370" as="targetPoint" />
          </mxGeometry>
        </mxCell>
        <mxCell id="wifZ-9k00RwjJwxD-yln-47" value="message d&#39;erreur si compte inexistant" style="text;html=1;align=center;verticalAlign=middle;whiteSpace=wrap;rounded=0;fontSize=10;fillColor=#f8cecc;strokeColor=#b85450;" parent="1" vertex="1">
          <mxGeometry x="212" y="380" width="179" height="15" as="geometry" />
        </mxCell>
        <mxCell id="wifZ-9k00RwjJwxD-yln-48" value="" style="endArrow=classic;html=1;rounded=0;" parent="1" edge="1">
          <mxGeometry width="50" height="50" relative="1" as="geometry">
            <mxPoint x="400" y="400" as="sourcePoint" />
            <mxPoint x="200" y="400" as="targetPoint" />
          </mxGeometry>
        </mxCell>
        <mxCell id="wifZ-9k00RwjJwxD-yln-49" value="Réserver une séance" style="text;html=1;align=center;verticalAlign=middle;whiteSpace=wrap;rounded=0;fontStyle=4" parent="1" vertex="1">
          <mxGeometry y="430" width="130" height="30" as="geometry" />
        </mxCell>
        <mxCell id="wifZ-9k00RwjJwxD-yln-50" style="edgeStyle=orthogonalEdgeStyle;rounded=0;orthogonalLoop=1;jettySize=auto;html=1;" parent="1" source="wifZ-9k00RwjJwxD-yln-51" edge="1">
          <mxGeometry relative="1" as="geometry">
            <mxPoint x="200" y="520" as="targetPoint" />
          </mxGeometry>
        </mxCell>
        <mxCell id="wifZ-9k00RwjJwxD-yln-51" value="Visiteur" style="shape=umlActor;verticalLabelPosition=bottom;verticalAlign=top;html=1;outlineConnect=0;" parent="1" vertex="1">
          <mxGeometry x="20" y="490" width="30" height="60" as="geometry" />
        </mxCell>
        <mxCell id="wifZ-9k00RwjJwxD-yln-52" value="" style="endArrow=none;html=1;rounded=0;" parent="1" edge="1">
          <mxGeometry width="50" height="50" relative="1" as="geometry">
            <mxPoint x="200" y="810" as="sourcePoint" />
            <mxPoint x="200" y="490" as="targetPoint" />
          </mxGeometry>
        </mxCell>
        <mxCell id="wifZ-9k00RwjJwxD-yln-53" value="" style="endArrow=none;html=1;rounded=0;" parent="1" edge="1">
          <mxGeometry width="50" height="50" relative="1" as="geometry">
            <mxPoint x="400" y="810" as="sourcePoint" />
            <mxPoint x="400" y="490" as="targetPoint" />
          </mxGeometry>
        </mxCell>
        <mxCell id="wifZ-9k00RwjJwxD-yln-54" value="" style="endArrow=none;html=1;rounded=0;" parent="1" edge="1">
          <mxGeometry width="50" height="50" relative="1" as="geometry">
            <mxPoint x="600" y="810" as="sourcePoint" />
            <mxPoint x="600" y="490" as="targetPoint" />
          </mxGeometry>
        </mxCell>
        <mxCell id="wifZ-9k00RwjJwxD-yln-55" value="Front-end" style="text;html=1;align=center;verticalAlign=middle;whiteSpace=wrap;rounded=0;" parent="1" vertex="1">
          <mxGeometry x="170" y="450" width="60" height="30" as="geometry" />
        </mxCell>
        <mxCell id="wifZ-9k00RwjJwxD-yln-56" value="Back-end" style="text;html=1;align=center;verticalAlign=middle;whiteSpace=wrap;rounded=0;" parent="1" vertex="1">
          <mxGeometry x="370" y="450" width="60" height="30" as="geometry" />
        </mxCell>
        <mxCell id="wifZ-9k00RwjJwxD-yln-57" value="BDD" style="text;html=1;align=center;verticalAlign=middle;whiteSpace=wrap;rounded=0;" parent="1" vertex="1">
          <mxGeometry x="570" y="450" width="60" height="30" as="geometry" />
        </mxCell>
        <mxCell id="wifZ-9k00RwjJwxD-yln-58" value="choisit un cinéma" style="text;html=1;align=center;verticalAlign=middle;whiteSpace=wrap;rounded=0;fontSize=10;" parent="1" vertex="1">
          <mxGeometry x="70" y="502.5" width="100" height="10" as="geometry" />
        </mxCell>
        <mxCell id="wifZ-9k00RwjJwxD-yln-59" value="" style="endArrow=classic;html=1;rounded=0;" parent="1" edge="1">
          <mxGeometry width="50" height="50" relative="1" as="geometry">
            <mxPoint x="200" y="530" as="sourcePoint" />
            <mxPoint x="400" y="530" as="targetPoint" />
          </mxGeometry>
        </mxCell>
        <mxCell id="wifZ-9k00RwjJwxD-yln-60" value="GET des films" style="text;html=1;align=center;verticalAlign=middle;whiteSpace=wrap;rounded=0;fontSize=10;" parent="1" vertex="1">
          <mxGeometry x="220" y="512.5" width="170" height="15" as="geometry" />
        </mxCell>
        <mxCell id="wifZ-9k00RwjJwxD-yln-61" value="" style="endArrow=classic;html=1;rounded=0;" parent="1" edge="1">
          <mxGeometry width="50" height="50" relative="1" as="geometry">
            <mxPoint x="400" y="540" as="sourcePoint" />
            <mxPoint x="600" y="540" as="targetPoint" />
          </mxGeometry>
        </mxCell>
        <mxCell id="wifZ-9k00RwjJwxD-yln-62" value="vérification des données" style="text;html=1;align=center;verticalAlign=middle;whiteSpace=wrap;rounded=0;fontSize=10;" parent="1" vertex="1">
          <mxGeometry x="414" y="520" width="170" height="15" as="geometry" />
        </mxCell>
        <mxCell id="wifZ-9k00RwjJwxD-yln-63" value="envoi des données" style="text;html=1;align=center;verticalAlign=middle;whiteSpace=wrap;rounded=0;fontSize=10;fillColor=#d5e8d4;strokeColor=#82b366;" parent="1" vertex="1">
          <mxGeometry x="420" y="550" width="170" height="15" as="geometry" />
        </mxCell>
        <mxCell id="wifZ-9k00RwjJwxD-yln-64" value="" style="endArrow=classic;html=1;rounded=0;" parent="1" edge="1">
          <mxGeometry width="50" height="50" relative="1" as="geometry">
            <mxPoint x="599" y="570" as="sourcePoint" />
            <mxPoint x="399" y="570" as="targetPoint" />
          </mxGeometry>
        </mxCell>
        <mxCell id="wifZ-9k00RwjJwxD-yln-65" value="affiche la liste des films" style="text;html=1;align=center;verticalAlign=middle;whiteSpace=wrap;rounded=0;fontSize=10;fillColor=#d5e8d4;strokeColor=#82b366;" parent="1" vertex="1">
          <mxGeometry x="221" y="560" width="170" height="15" as="geometry" />
        </mxCell>
        <mxCell id="wifZ-9k00RwjJwxD-yln-66" value="" style="endArrow=classic;html=1;rounded=0;" parent="1" edge="1">
          <mxGeometry width="50" height="50" relative="1" as="geometry">
            <mxPoint x="400" y="580" as="sourcePoint" />
            <mxPoint x="200" y="580" as="targetPoint" />
          </mxGeometry>
        </mxCell>
        <mxCell id="wifZ-9k00RwjJwxD-yln-69" style="edgeStyle=orthogonalEdgeStyle;rounded=0;orthogonalLoop=1;jettySize=auto;html=1;" parent="1" edge="1">
          <mxGeometry relative="1" as="geometry">
            <mxPoint x="200" y="592.5" as="targetPoint" />
            <mxPoint x="50" y="592.5" as="sourcePoint" />
          </mxGeometry>
        </mxCell>
        <mxCell id="wifZ-9k00RwjJwxD-yln-70" value="choisit un film et un nombre de places" style="text;html=1;align=center;verticalAlign=middle;whiteSpace=wrap;rounded=0;fontSize=10;" parent="1" vertex="1">
          <mxGeometry x="70" y="575" width="100" height="10" as="geometry" />
        </mxCell>
        <mxCell id="wifZ-9k00RwjJwxD-yln-71" value="" style="endArrow=classic;html=1;rounded=0;" parent="1" edge="1">
          <mxGeometry width="50" height="50" relative="1" as="geometry">
            <mxPoint x="201.5" y="607.5" as="sourcePoint" />
            <mxPoint x="401.5" y="607.5" as="targetPoint" />
          </mxGeometry>
        </mxCell>
        <mxCell id="wifZ-9k00RwjJwxD-yln-72" value="GET des séances du film" style="text;html=1;align=center;verticalAlign=middle;whiteSpace=wrap;rounded=0;fontSize=10;" parent="1" vertex="1">
          <mxGeometry x="221.5" y="590" width="170" height="15" as="geometry" />
        </mxCell>
        <mxCell id="wifZ-9k00RwjJwxD-yln-73" value="" style="endArrow=classic;html=1;rounded=0;" parent="1" edge="1">
          <mxGeometry width="50" height="50" relative="1" as="geometry">
            <mxPoint x="399.5" y="620" as="sourcePoint" />
            <mxPoint x="599.5" y="620" as="targetPoint" />
          </mxGeometry>
        </mxCell>
        <mxCell id="wifZ-9k00RwjJwxD-yln-74" value="vérification des données" style="text;html=1;align=center;verticalAlign=middle;whiteSpace=wrap;rounded=0;fontSize=10;" parent="1" vertex="1">
          <mxGeometry x="413.5" y="600" width="170" height="15" as="geometry" />
        </mxCell>
        <mxCell id="wifZ-9k00RwjJwxD-yln-75" value="envoi des données" style="text;html=1;align=center;verticalAlign=middle;whiteSpace=wrap;rounded=0;fontSize=10;fillColor=#d5e8d4;strokeColor=#82b366;" parent="1" vertex="1">
          <mxGeometry x="419.5" y="630" width="170" height="15" as="geometry" />
        </mxCell>
        <mxCell id="wifZ-9k00RwjJwxD-yln-76" value="" style="endArrow=classic;html=1;rounded=0;" parent="1" edge="1">
          <mxGeometry width="50" height="50" relative="1" as="geometry">
            <mxPoint x="598.5" y="650" as="sourcePoint" />
            <mxPoint x="398.5" y="650" as="targetPoint" />
          </mxGeometry>
        </mxCell>
        <mxCell id="wifZ-9k00RwjJwxD-yln-80" value="affiche les séances du film" style="text;html=1;align=center;verticalAlign=middle;whiteSpace=wrap;rounded=0;fontSize=10;fillColor=#d5e8d4;strokeColor=#82b366;" parent="1" vertex="1">
          <mxGeometry x="222.5" y="640" width="170" height="15" as="geometry" />
        </mxCell>
        <mxCell id="wifZ-9k00RwjJwxD-yln-81" value="" style="endArrow=classic;html=1;rounded=0;" parent="1" edge="1">
          <mxGeometry width="50" height="50" relative="1" as="geometry">
            <mxPoint x="401.5" y="660" as="sourcePoint" />
            <mxPoint x="201.5" y="660" as="targetPoint" />
          </mxGeometry>
        </mxCell>
        <mxCell id="wifZ-9k00RwjJwxD-yln-82" style="edgeStyle=orthogonalEdgeStyle;rounded=0;orthogonalLoop=1;jettySize=auto;html=1;" parent="1" edge="1">
          <mxGeometry relative="1" as="geometry">
            <mxPoint x="200" y="672.5" as="targetPoint" />
            <mxPoint x="50" y="672.5" as="sourcePoint" />
          </mxGeometry>
        </mxCell>
        <mxCell id="wifZ-9k00RwjJwxD-yln-83" value="choisit la séance et le placement" style="text;html=1;align=center;verticalAlign=middle;whiteSpace=wrap;rounded=0;fontSize=10;" parent="1" vertex="1">
          <mxGeometry x="60" y="655" width="100" height="10" as="geometry" />
        </mxCell>
        <mxCell id="wifZ-9k00RwjJwxD-yln-85" value="" style="endArrow=classic;html=1;rounded=0;" parent="1" edge="1">
          <mxGeometry width="50" height="50" relative="1" as="geometry">
            <mxPoint x="201.5" y="687.5" as="sourcePoint" />
            <mxPoint x="401.5" y="687.5" as="targetPoint" />
          </mxGeometry>
        </mxCell>
        <mxCell id="wifZ-9k00RwjJwxD-yln-86" value="calcul du prix" style="text;html=1;align=center;verticalAlign=middle;whiteSpace=wrap;rounded=0;fontSize=10;" parent="1" vertex="1">
          <mxGeometry x="221.5" y="670" width="170" height="15" as="geometry" />
        </mxCell>
        <mxCell id="wifZ-9k00RwjJwxD-yln-87" value="" style="endArrow=classic;html=1;rounded=0;" parent="1" edge="1">
          <mxGeometry width="50" height="50" relative="1" as="geometry">
            <mxPoint x="401.5" y="720" as="sourcePoint" />
            <mxPoint x="201.5" y="720" as="targetPoint" />
          </mxGeometry>
        </mxCell>
        <mxCell id="wifZ-9k00RwjJwxD-yln-88" value="affiche le résumé de la réservation" style="text;html=1;align=center;verticalAlign=middle;whiteSpace=wrap;rounded=0;fontSize=10;" parent="1" vertex="1">
          <mxGeometry x="220" y="700" width="170" height="15" as="geometry" />
        </mxCell>
        <mxCell id="wifZ-9k00RwjJwxD-yln-89" style="edgeStyle=orthogonalEdgeStyle;rounded=0;orthogonalLoop=1;jettySize=auto;html=1;" parent="1" edge="1">
          <mxGeometry relative="1" as="geometry">
            <mxPoint x="200" y="732.5" as="targetPoint" />
            <mxPoint x="50" y="732.5" as="sourcePoint" />
          </mxGeometry>
        </mxCell>
        <mxCell id="wifZ-9k00RwjJwxD-yln-90" value="se connecte" style="text;html=1;align=center;verticalAlign=middle;whiteSpace=wrap;rounded=0;fontSize=10;" parent="1" vertex="1">
          <mxGeometry x="60" y="715" width="100" height="10" as="geometry" />
        </mxCell>
        <mxCell id="wifZ-9k00RwjJwxD-yln-94" style="edgeStyle=orthogonalEdgeStyle;rounded=0;orthogonalLoop=1;jettySize=auto;html=1;" parent="1" edge="1">
          <mxGeometry relative="1" as="geometry">
            <mxPoint x="200" y="752.5" as="targetPoint" />
            <mxPoint x="50" y="752.5" as="sourcePoint" />
          </mxGeometry>
        </mxCell>
        <mxCell id="wifZ-9k00RwjJwxD-yln-95" value="valide la réservation" style="text;html=1;align=center;verticalAlign=middle;whiteSpace=wrap;rounded=0;fontSize=10;" parent="1" vertex="1">
          <mxGeometry x="60" y="740" width="100" height="10" as="geometry" />
        </mxCell>
        <mxCell id="wifZ-9k00RwjJwxD-yln-97" value="" style="endArrow=classic;html=1;rounded=0;" parent="1" edge="1">
          <mxGeometry width="50" height="50" relative="1" as="geometry">
            <mxPoint x="201.5" y="767.5" as="sourcePoint" />
            <mxPoint x="401.5" y="767.5" as="targetPoint" />
          </mxGeometry>
        </mxCell>
        <mxCell id="wifZ-9k00RwjJwxD-yln-98" value="POST de la commande" style="text;html=1;align=center;verticalAlign=middle;whiteSpace=wrap;rounded=0;fontSize=10;" parent="1" vertex="1">
          <mxGeometry x="221.5" y="750" width="170" height="15" as="geometry" />
        </mxCell>
        <mxCell id="wifZ-9k00RwjJwxD-yln-99" value="" style="endArrow=classic;html=1;rounded=0;" parent="1" edge="1">
          <mxGeometry width="50" height="50" relative="1" as="geometry">
            <mxPoint x="399" y="780" as="sourcePoint" />
            <mxPoint x="599" y="780" as="targetPoint" />
          </mxGeometry>
        </mxCell>
        <mxCell id="wifZ-9k00RwjJwxD-yln-100" value="enregistrement de la commande" style="text;html=1;align=center;verticalAlign=middle;whiteSpace=wrap;rounded=0;fontSize=10;" parent="1" vertex="1">
          <mxGeometry x="413" y="760" width="170" height="15" as="geometry" />
        </mxCell>
        <mxCell id="wifZ-9k00RwjJwxD-yln-103" value="" style="endArrow=classic;html=1;rounded=0;" parent="1" edge="1">
          <mxGeometry width="50" height="50" relative="1" as="geometry">
            <mxPoint x="401.5" y="795" as="sourcePoint" />
            <mxPoint x="201.5" y="795" as="targetPoint" />
          </mxGeometry>
        </mxCell>
        <mxCell id="wifZ-9k00RwjJwxD-yln-104" value="envoi de mail de confirmation" style="text;html=1;align=center;verticalAlign=middle;whiteSpace=wrap;rounded=0;fontSize=10;fillColor=#d5e8d4;strokeColor=#82b366;" parent="1" vertex="1">
          <mxGeometry x="220" y="775" width="170" height="15" as="geometry" />
        </mxCell>
        <mxCell id="nucLkDcXrnHL7K70imRz-1" value="CRUD films et séances" style="text;html=1;align=center;verticalAlign=middle;whiteSpace=wrap;rounded=0;fontStyle=4" vertex="1" parent="1">
          <mxGeometry y="820" width="140" height="30" as="geometry" />
        </mxCell>
        <mxCell id="nucLkDcXrnHL7K70imRz-2" style="edgeStyle=orthogonalEdgeStyle;rounded=0;orthogonalLoop=1;jettySize=auto;html=1;" edge="1" parent="1" source="nucLkDcXrnHL7K70imRz-3">
          <mxGeometry relative="1" as="geometry">
            <mxPoint x="200" y="910" as="targetPoint" />
          </mxGeometry>
        </mxCell>
        <mxCell id="nucLkDcXrnHL7K70imRz-3" value="Employé" style="shape=umlActor;verticalLabelPosition=bottom;verticalAlign=top;html=1;outlineConnect=0;" vertex="1" parent="1">
          <mxGeometry x="20" y="880" width="30" height="60" as="geometry" />
        </mxCell>
        <mxCell id="nucLkDcXrnHL7K70imRz-4" value="" style="endArrow=none;html=1;rounded=0;" edge="1" parent="1">
          <mxGeometry width="50" height="50" relative="1" as="geometry">
            <mxPoint x="200" y="1240" as="sourcePoint" />
            <mxPoint x="200" y="880" as="targetPoint" />
          </mxGeometry>
        </mxCell>
        <mxCell id="nucLkDcXrnHL7K70imRz-5" value="" style="endArrow=none;html=1;rounded=0;" edge="1" parent="1">
          <mxGeometry width="50" height="50" relative="1" as="geometry">
            <mxPoint x="400" y="1220" as="sourcePoint" />
            <mxPoint x="400" y="880" as="targetPoint" />
          </mxGeometry>
        </mxCell>
        <mxCell id="nucLkDcXrnHL7K70imRz-6" value="" style="endArrow=none;html=1;rounded=0;" edge="1" parent="1">
          <mxGeometry width="50" height="50" relative="1" as="geometry">
            <mxPoint x="600" y="1220" as="sourcePoint" />
            <mxPoint x="600" y="880" as="targetPoint" />
          </mxGeometry>
        </mxCell>
        <mxCell id="nucLkDcXrnHL7K70imRz-7" value="Front-end" style="text;html=1;align=center;verticalAlign=middle;whiteSpace=wrap;rounded=0;" vertex="1" parent="1">
          <mxGeometry x="170" y="840" width="60" height="30" as="geometry" />
        </mxCell>
        <mxCell id="nucLkDcXrnHL7K70imRz-8" value="Back-end" style="text;html=1;align=center;verticalAlign=middle;whiteSpace=wrap;rounded=0;" vertex="1" parent="1">
          <mxGeometry x="370" y="840" width="60" height="30" as="geometry" />
        </mxCell>
        <mxCell id="nucLkDcXrnHL7K70imRz-9" value="BDD" style="text;html=1;align=center;verticalAlign=middle;whiteSpace=wrap;rounded=0;" vertex="1" parent="1">
          <mxGeometry x="570" y="840" width="60" height="30" as="geometry" />
        </mxCell>
        <mxCell id="nucLkDcXrnHL7K70imRz-10" value="se connecte" style="text;html=1;align=center;verticalAlign=middle;whiteSpace=wrap;rounded=0;fontSize=10;" vertex="1" parent="1">
          <mxGeometry x="70" y="892.5" width="100" height="10" as="geometry" />
        </mxCell>
        <mxCell id="nucLkDcXrnHL7K70imRz-11" value="" style="endArrow=classic;html=1;rounded=0;" edge="1" parent="1">
          <mxGeometry width="50" height="50" relative="1" as="geometry">
            <mxPoint x="201.5" y="947.5" as="sourcePoint" />
            <mxPoint x="401.5" y="947.5" as="targetPoint" />
          </mxGeometry>
        </mxCell>
        <mxCell id="nucLkDcXrnHL7K70imRz-12" value="POST données de film" style="text;html=1;align=center;verticalAlign=middle;whiteSpace=wrap;rounded=0;fontSize=10;" vertex="1" parent="1">
          <mxGeometry x="221.5" y="930" width="170" height="15" as="geometry" />
        </mxCell>
        <mxCell id="nucLkDcXrnHL7K70imRz-13" value="" style="endArrow=classic;html=1;rounded=0;" edge="1" parent="1">
          <mxGeometry width="50" height="50" relative="1" as="geometry">
            <mxPoint x="399" y="960" as="sourcePoint" />
            <mxPoint x="599" y="960" as="targetPoint" />
          </mxGeometry>
        </mxCell>
        <mxCell id="nucLkDcXrnHL7K70imRz-14" value="enregistrement des données" style="text;html=1;align=center;verticalAlign=middle;whiteSpace=wrap;rounded=0;fontSize=10;" vertex="1" parent="1">
          <mxGeometry x="413" y="940" width="170" height="15" as="geometry" />
        </mxCell>
        <mxCell id="nucLkDcXrnHL7K70imRz-19" style="edgeStyle=orthogonalEdgeStyle;rounded=0;orthogonalLoop=1;jettySize=auto;html=1;" edge="1" parent="1">
          <mxGeometry relative="1" as="geometry">
            <mxPoint x="200" y="935" as="targetPoint" />
            <mxPoint x="50" y="935" as="sourcePoint" />
          </mxGeometry>
        </mxCell>
        <mxCell id="nucLkDcXrnHL7K70imRz-20" value="ajoute un film" style="text;html=1;align=center;verticalAlign=middle;whiteSpace=wrap;rounded=0;fontSize=10;" vertex="1" parent="1">
          <mxGeometry x="70" y="917.5" width="100" height="10" as="geometry" />
        </mxCell>
        <mxCell id="nucLkDcXrnHL7K70imRz-21" value="" style="endArrow=classic;html=1;rounded=0;" edge="1" parent="1">
          <mxGeometry width="50" height="50" relative="1" as="geometry">
            <mxPoint x="201.5" y="980" as="sourcePoint" />
            <mxPoint x="401.5" y="980" as="targetPoint" />
          </mxGeometry>
        </mxCell>
        <mxCell id="nucLkDcXrnHL7K70imRz-22" value="POST des données du film" style="text;html=1;align=center;verticalAlign=middle;whiteSpace=wrap;rounded=0;fontSize=10;" vertex="1" parent="1">
          <mxGeometry x="216.5" y="965" width="170" height="15" as="geometry" />
        </mxCell>
        <mxCell id="nucLkDcXrnHL7K70imRz-23" value="" style="endArrow=classic;html=1;rounded=0;" edge="1" parent="1">
          <mxGeometry width="50" height="50" relative="1" as="geometry">
            <mxPoint x="399" y="990" as="sourcePoint" />
            <mxPoint x="599" y="990" as="targetPoint" />
          </mxGeometry>
        </mxCell>
        <mxCell id="nucLkDcXrnHL7K70imRz-24" value="mise à jour des données" style="text;html=1;align=center;verticalAlign=middle;whiteSpace=wrap;rounded=0;fontSize=10;" vertex="1" parent="1">
          <mxGeometry x="413" y="970" width="170" height="15" as="geometry" />
        </mxCell>
        <mxCell id="nucLkDcXrnHL7K70imRz-29" style="edgeStyle=orthogonalEdgeStyle;rounded=0;orthogonalLoop=1;jettySize=auto;html=1;" edge="1" parent="1">
          <mxGeometry relative="1" as="geometry">
            <mxPoint x="200" y="970" as="targetPoint" />
            <mxPoint x="50" y="970" as="sourcePoint" />
          </mxGeometry>
        </mxCell>
        <mxCell id="nucLkDcXrnHL7K70imRz-30" value="modifie un film" style="text;html=1;align=center;verticalAlign=middle;whiteSpace=wrap;rounded=0;fontSize=10;" vertex="1" parent="1">
          <mxGeometry x="60" y="955" width="100" height="10" as="geometry" />
        </mxCell>
        <mxCell id="nucLkDcXrnHL7K70imRz-31" value="" style="endArrow=classic;html=1;rounded=0;" edge="1" parent="1">
          <mxGeometry width="50" height="50" relative="1" as="geometry">
            <mxPoint x="201.5" y="1007.5" as="sourcePoint" />
            <mxPoint x="401.5" y="1007.5" as="targetPoint" />
          </mxGeometry>
        </mxCell>
        <mxCell id="nucLkDcXrnHL7K70imRz-32" value="POST d&#39;un film" style="text;html=1;align=center;verticalAlign=middle;whiteSpace=wrap;rounded=0;fontSize=10;" vertex="1" parent="1">
          <mxGeometry x="221.5" y="990" width="170" height="15" as="geometry" />
        </mxCell>
        <mxCell id="nucLkDcXrnHL7K70imRz-33" value="" style="endArrow=classic;html=1;rounded=0;" edge="1" parent="1">
          <mxGeometry width="50" height="50" relative="1" as="geometry">
            <mxPoint x="401.5" y="1110" as="sourcePoint" />
            <mxPoint x="201.5" y="1110" as="targetPoint" />
          </mxGeometry>
        </mxCell>
        <mxCell id="nucLkDcXrnHL7K70imRz-34" value="affiche le résumé de la réservation" style="text;html=1;align=center;verticalAlign=middle;whiteSpace=wrap;rounded=0;fontSize=10;" vertex="1" parent="1">
          <mxGeometry x="220" y="1090" width="170" height="15" as="geometry" />
        </mxCell>
        <mxCell id="nucLkDcXrnHL7K70imRz-35" style="edgeStyle=orthogonalEdgeStyle;rounded=0;orthogonalLoop=1;jettySize=auto;html=1;" edge="1" parent="1">
          <mxGeometry relative="1" as="geometry">
            <mxPoint x="200" y="997.5" as="targetPoint" />
            <mxPoint x="50" y="997.5" as="sourcePoint" />
          </mxGeometry>
        </mxCell>
        <mxCell id="nucLkDcXrnHL7K70imRz-36" value="supprime un film" style="text;html=1;align=center;verticalAlign=middle;whiteSpace=wrap;rounded=0;fontSize=10;" vertex="1" parent="1">
          <mxGeometry x="60" y="980" width="100" height="10" as="geometry" />
        </mxCell>
        <mxCell id="nucLkDcXrnHL7K70imRz-37" style="edgeStyle=orthogonalEdgeStyle;rounded=0;orthogonalLoop=1;jettySize=auto;html=1;" edge="1" parent="1">
          <mxGeometry relative="1" as="geometry">
            <mxPoint x="200" y="1142.5" as="targetPoint" />
            <mxPoint x="50" y="1142.5" as="sourcePoint" />
          </mxGeometry>
        </mxCell>
        <mxCell id="nucLkDcXrnHL7K70imRz-38" value="valide la réservation" style="text;html=1;align=center;verticalAlign=middle;whiteSpace=wrap;rounded=0;fontSize=10;" vertex="1" parent="1">
          <mxGeometry x="60" y="1130" width="100" height="10" as="geometry" />
        </mxCell>
        <mxCell id="nucLkDcXrnHL7K70imRz-39" value="" style="endArrow=classic;html=1;rounded=0;" edge="1" parent="1">
          <mxGeometry width="50" height="50" relative="1" as="geometry">
            <mxPoint x="201.5" y="1157.5" as="sourcePoint" />
            <mxPoint x="401.5" y="1157.5" as="targetPoint" />
          </mxGeometry>
        </mxCell>
        <mxCell id="nucLkDcXrnHL7K70imRz-40" value="POST de la commande" style="text;html=1;align=center;verticalAlign=middle;whiteSpace=wrap;rounded=0;fontSize=10;" vertex="1" parent="1">
          <mxGeometry x="221.5" y="1140" width="170" height="15" as="geometry" />
        </mxCell>
        <mxCell id="nucLkDcXrnHL7K70imRz-41" value="" style="endArrow=classic;html=1;rounded=0;" edge="1" parent="1">
          <mxGeometry width="50" height="50" relative="1" as="geometry">
            <mxPoint x="399" y="1020" as="sourcePoint" />
            <mxPoint x="599" y="1020" as="targetPoint" />
          </mxGeometry>
        </mxCell>
        <mxCell id="nucLkDcXrnHL7K70imRz-42" value="suppression des données" style="text;html=1;align=center;verticalAlign=middle;whiteSpace=wrap;rounded=0;fontSize=10;" vertex="1" parent="1">
          <mxGeometry x="413" y="1000" width="170" height="15" as="geometry" />
        </mxCell>
        <mxCell id="nucLkDcXrnHL7K70imRz-43" value="" style="endArrow=classic;html=1;rounded=0;" edge="1" parent="1">
          <mxGeometry width="50" height="50" relative="1" as="geometry">
            <mxPoint x="401.5" y="1185" as="sourcePoint" />
            <mxPoint x="201.5" y="1185" as="targetPoint" />
          </mxGeometry>
        </mxCell>
        <mxCell id="nucLkDcXrnHL7K70imRz-44" value="envoi de mail de confirmation" style="text;html=1;align=center;verticalAlign=middle;whiteSpace=wrap;rounded=0;fontSize=10;fillColor=#d5e8d4;strokeColor=#82b366;" vertex="1" parent="1">
          <mxGeometry x="220" y="1165" width="170" height="15" as="geometry" />
        </mxCell>
      </root>
    </mxGraphModel>
  </diagram>
</mxfile>
